<svg xmlns="http://www.w3.org/2000/svg" viewBox="0 0 900 520" role="img" aria-labelledby="title desc">
  <title id="title">Lower limb prosthetic support</title>
  <desc id="desc">A non-graphic illustration of a lower limb prosthetic and supportive footwear.</desc>
  <defs>
    <linearGradient id="bg" x1="0" y1="0" x2="1" y2="1">
      <stop offset="0" stop-color="#eef9fc"/>
      <stop offset="1" stop-color="#f5f5f7"/>
    </linearGradient>
    <linearGradient id="leg" x1="0" y1="0" x2="0" y2="1">
      <stop offset="0" stop-color="#d8eef4"/>
      <stop offset="1" stop-color="#8ac8d8"/>
    </linearGradient>
    <linearGradient id="shoe" x1="0" y1="0" x2="1" y2="1">
      <stop offset="0" stop-color="#2a2968"/>
      <stop offset="1" stop-color="#101035"/>
    </linearGradient>
  </defs>
  <rect width="900" height="520" fill="url(#bg)"/>
  <circle cx="705" cy="124" r="84" fill="#3fbada" opacity=".16"/>
  <circle cx="190" cy="420" r="130" fill="#1e1b5d" opacity=".08"/>
  <g transform="translate(300 58)">
    <rect x="112" y="0" width="104" height="172" rx="42" fill="url(#leg)"/>
    <rect x="132" y="148" width="64" height="130" rx="30" fill="#f7fbfc" stroke="#8ac8d8" stroke-width="12"/>
    <rect x="151" y="254" width="26" height="110" rx="13" fill="#77828d"/>
    <circle cx="164" cy="375" r="31" fill="#dfe6eb" stroke="#77828d" stroke-width="10"/>
    <path d="M166 390c31 11 74 34 107 62 18 15 12 44-12 50-88 22-171 17-246-14-25-10-26-45-2-58 50-27 102-44 153-40z" fill="url(#shoe)"/>
    <path d="M48 450c52 18 111 22 182 10" fill="none" stroke="#3fbada" stroke-width="13" stroke-linecap="round"/>
    <path d="M88 426l34 28M126 412l36 31M168 407l33 29" fill="none" stroke="#fff" stroke-width="9" stroke-linecap="round"/>
  </g>
  <path d="M130 450c156 31 362 32 641 0" fill="none" stroke="#d2d2d7" stroke-width="10" stroke-linecap="round" opacity=".7"/>
</svg>
